<svg width="194" height="194" viewBox="0 0 194 194" fill="none" xmlns="http://www.w3.org/2000/svg">
<path d="M46.6816 120.299C48.6414 131.138 57.2769 150.881 62.1404 171.324C58.1932 157.468 55.6349 143.919 46.6816 120.299ZM46.6816 120.299C59.7378 146.943 65.6853 157.835 67.6376 169.323C61.2297 151.163 54.3093 136.247 46.6816 120.299ZM45.9762 101.257C56.6143 131.987 64.7787 154.572 71.039 178.668C62.3462 149.258 52.4507 118.869 45.9762 101.257ZM45.9762 101.257C58.1772 131.398 67.5013 157.202 76.5362 176.668C64.8928 152.391 53.7059 126.235 45.9762 101.257ZM49.4726 93.7589C60.6023 125.142 71.8419 152.048 77.1364 178.317C69.807 150.009 62.2963 125.292 49.4726 93.7589ZM49.4726 93.7589C64.5326 133.845 72.1939 154.716 82.6336 176.316C71.8296 147.966 59.9209 120.816 49.4726 93.7589ZM50.7681 80.2139C69.8475 128.56 77.8832 151.842 83.0338 177.415C71.3205 140.845 61.7322 106.035 50.7681 80.2139ZM50.7681 80.2139C64.4018 112.735 79.374 143.269 88.531 175.415C81.2076 152.633 71.3629 129.798 50.7681 80.2139ZM54.2645 72.7159C65.408 108.824 78.6703 143.211 88.3309 174.865C76.3841 140.837 65.3378 107.938 54.2645 72.7159ZM54.2645 72.7159C65.5942 105.594 81.061 142.67 93.8281 172.864C81.7436 150.611 73.1749 127.186 54.2645 72.7159ZM56.3603 61.3699C76.4473 124.771 84.7227 149.845 93.628 172.314C84.6049 144.984 75.248 118.181 56.3603 61.3699ZM56.3603 61.3699C74.8721 103.644 87.9245 138.062 99.1252 170.313C86.0922 135.388 74.0158 102.947 56.3603 61.3699ZM60.4569 55.521C72.3844 87.941 83.4656 127.921 98.9252 169.764C86.4405 130.05 73.9456 92.6698 60.4569 55.521ZM60.4569 55.521C81.8611 107.485 92.5009 137.725 104.422 167.763C90.1892 130.237 73.6805 91.9512 60.4569 55.521ZM64.5536 49.6721C82.2205 99.445 92.4902 134.6 103.822 166.114C90.1008 130.926 78.3965 96.3088 64.5536 49.6721ZM64.5536 49.6721C83.1706 91.962 96.2545 126.78 109.319 164.113C91.1761 122.185 76.398 81.3911 64.5536 49.6721ZM69.4505 46.0222C88.7537 109.924 98.0093 134.773 108.319 161.364C98.5793 127.782 87.8298 97.482 69.4505 46.0222ZM69.4505 46.0222C86.2586 94.6513 99.7525 124.318 113.816 159.364C96.7631 122.155 81.3918 82.5377 69.4505 46.0222ZM73.9473 41.2727C87.1547 81.2652 99.3195 121.023 113.016 157.165C96.6858 113.279 82.4243 70.372 73.9473 41.2727ZM73.9473 41.2727C90.2951 79.2107 105.631 116.729 118.513 155.164C100.795 113.693 84.6586 71.5539 73.9473 41.2727ZM78.4441 36.5233C94.552 79.0601 103.875 116.89 117.513 152.415C109.64 127.571 101.254 101.442 78.4441 36.5233ZM78.4441 36.5233C96.6176 83.6802 106.782 118.232 123.01 150.414C110.79 119.75 98.3638 90.895 78.4441 36.5233ZM82.7408 31.2242C96.6818 69.3073 111.17 107.087 122.209 148.216C112.27 122.969 102.975 98.9191 82.7408 31.2242ZM82.7408 31.2242C96.3781 66.2443 110.598 106.525 127.707 146.215C119.988 120.108 109.458 94.7237 82.7408 31.2242ZM86.6374 24.8256C101.816 72.6411 117.419 109.624 127.507 145.665C118.784 118.318 109.165 91.3884 86.6374 24.8256ZM86.6374 24.8256C116.1 96.8029 124.9 117.875 133.004 143.664C117.742 107.934 103.77 70.8638 86.6374 24.8256ZM91.3342 20.6259C113.044 81.4855 123.151 110.175 131.603 139.816C117.524 97.3327 104.143 57.3141 91.3342 20.6259ZM91.3342 20.6259C117.086 81.0675 128.126 110.785 137.1 137.815C122.346 92.8235 104.8 48.4159 91.3342 20.6259ZM96.2312 16.9759C111.027 58.296 123.758 96.1633 134.9 131.768C123.008 99.2259 112.407 64.8117 96.2312 16.9759ZM96.2312 16.9759C121.283 80.2589 130.876 105.038 140.397 129.768C122.69 86.7772 106.903 43.7512 96.2312 16.9759ZM101.528 14.4254C113.299 42.9949 128.717 83.9697 138.596 124.82C131.557 97.551 122.211 70.6041 101.528 14.4254ZM101.528 14.4254C118.191 55.1244 129.601 87.3789 144.093 122.819C133.308 96.8147 121.993 70.9755 101.528 14.4254ZM107.026 12.4246C118.924 48.4474 129.464 81.246 141.892 116.772C127.607 80.1141 116.559 42.146 107.026 12.4246ZM107.026 12.4246C116.022 40.7799 132.093 82.1137 147.389 114.772C132.165 75.2883 115.436 34.7388 107.026 12.4246ZM112.323 9.87403C120.657 39.5546 132.436 75.2449 145.189 108.725C137.687 78.0591 127.456 47.4158 112.323 9.87403ZM112.323 9.87403C123.536 38.8079 140.471 73.3811 150.686 106.724C138.002 69.1306 122.124 30.3254 112.323 9.87403ZM119.42 12.271C126.213 32.4415 137.55 63.6772 147.084 96.8288C137.699 67.2867 128.179 40.4046 119.42 12.271ZM119.42 12.271C131.721 42.7662 141.465 67.6625 152.582 94.828C141.842 65.3623 130.917 36.9864 119.42 12.271ZM127.919 18.516C133.609 38.3427 142.155 63.2127 151.181 90.98C142.392 68.9115 134.467 43.2981 127.919 18.516ZM127.919 18.516C137.952 42.9779 150.624 65.2393 156.678 88.9792C147.008 67.106 139.976 45.4027 127.919 18.516Z" stroke="#2E7D32" stroke-width="0.6"/>
<path d="M86.31 24.8759C110.22 4.54972 124.658 10.156 136.776 34.8037M86.31 24.8759C106.611 5.5381 123.056 5.43258 136.776 34.8037M86.31 24.8759C67.6187 46.3731 51.6193 66.3595 47.4262 81.547M86.31 24.8759C64.0174 43.4959 50.4332 64.2473 47.4262 81.547M136.776 34.8037C147.144 63.2668 149.749 86.4885 147.118 108.021M136.776 34.8037C146.66 62.1777 151.121 86.3456 147.118 108.021M147.118 108.021C141.038 131.823 125.458 150.4 101.202 167.588M147.118 108.021C143.999 129.918 125.46 147.093 101.202 167.588M101.202 167.588C78.5649 185.985 60.2358 179.175 51.9764 151.041M101.202 167.588C77.7683 187.632 58.2312 178.986 51.9764 151.041M51.9764 151.041C42.7706 120.856 40.8512 99.7663 47.4262 81.547M51.9764 151.041C42.2721 123.605 44.4621 98.8511 47.4262 81.547" stroke="#3F7D40"/>
</svg>
