<svg width="139" height="135" viewBox="0 0 139 135" fill="none" xmlns="http://www.w3.org/2000/svg">
<path d="M-8.31649 61.299C-6.35663 72.1382 2.27887 91.8811 7.14235 112.324C3.19515 98.4677 0.636887 84.9185 -8.31649 61.299ZM-8.31649 61.299C4.73973 87.9426 10.6873 98.8347 12.6395 110.323C6.23168 92.1631 -0.68876 77.2471 -8.31649 61.299ZM-9.02182 42.2569C1.61625 72.9865 9.78069 95.5719 16.0409 119.668C7.34816 90.2575 -2.54732 59.8694 -9.02182 42.2569ZM-9.02182 42.2569C3.17911 72.3985 12.5033 98.202 21.5381 117.668C9.89472 93.3912 -1.29213 67.2351 -9.02182 42.2569ZM-5.52544 34.7589C5.60424 66.1415 16.8439 93.0483 22.1384 119.317C14.809 91.0086 7.29826 66.2918 -5.52544 34.7589ZM-5.52544 34.7589C9.53457 74.8448 17.1958 95.7156 27.6356 117.316C16.8316 88.966 4.9228 61.8156 -5.52544 34.7589ZM-4.22996 21.2139C14.8494 69.5596 22.8852 92.8415 28.0358 118.415C16.3225 81.8452 6.73414 47.0351 -4.22996 21.2139ZM-4.22996 21.2139C9.4038 53.7349 24.3759 84.2687 33.533 116.415C26.2096 93.6334 16.3649 70.798 -4.22996 21.2139ZM-0.733568 13.7159C10.41 49.8245 23.6723 84.2115 33.3329 115.865C21.3861 81.837 10.3397 48.9382 -0.733568 13.7159ZM-0.733568 13.7159C10.5961 46.5939 26.0629 83.6701 38.8301 113.864C26.7455 91.6106 18.1768 68.1861 -0.733568 13.7159ZM1.36224 2.36986C21.4492 65.7706 29.7246 90.8445 38.63 113.314C29.6069 85.9841 20.25 59.1812 1.36224 2.36986ZM1.36224 2.36986C19.874 44.6438 32.9264 79.0617 44.1272 111.313C31.0941 76.3876 19.0177 43.9474 1.36224 2.36986ZM5.45888 -3.47899C17.3863 28.941 28.4676 68.921 43.9271 110.764C31.4424 71.0496 18.9475 33.6698 5.45888 -3.47899ZM5.45888 -3.47899C26.863 48.4851 37.5029 78.725 49.4243 108.763C35.1911 71.2368 18.6824 32.9512 5.45888 -3.47899ZM9.55551 -9.32786C27.2224 40.445 37.4921 75.5998 48.8241 107.114C35.1028 71.9256 23.3985 37.3088 9.55551 -9.32786ZM9.55551 -9.32786C28.1725 32.962 41.2564 67.7796 54.3213 105.113C36.1781 63.185 21.4 22.3911 9.55551 -9.32786ZM14.4525 -12.9778C33.7556 50.9236 43.0113 75.7727 53.3209 102.364C43.5813 68.7823 32.8317 38.482 14.4525 -12.9778ZM14.4525 -12.9778C31.2605 35.6513 44.7545 65.3182 58.8181 100.364C41.765 63.1548 26.3937 23.5377 14.4525 -12.9778ZM18.9493 -17.7273C32.1567 22.2652 44.3215 62.0233 58.0177 98.1647C41.6878 54.2789 27.4262 11.372 18.9493 -17.7273ZM18.9493 -17.7273C35.2971 20.2107 50.6326 57.7294 63.5149 96.1638C45.7973 54.6925 29.6605 12.5539 18.9493 -17.7273ZM23.446 -22.4767C39.5539 20.0601 48.8773 57.8899 62.5145 93.4153C54.6415 68.5714 46.2562 42.4419 23.446 -22.4767ZM23.446 -22.4767C41.6195 24.6802 51.7836 59.2316 68.0117 91.4144C55.7917 60.75 43.3657 31.895 23.446 -22.4767ZM27.7428 -27.7758C41.6837 10.3073 56.1716 48.0872 67.2114 89.2156C57.2719 63.9689 47.9771 39.9191 27.7428 -27.7758ZM27.7428 -27.7758C41.38 7.24428 55.5995 47.525 72.7086 87.2147C64.9904 61.1083 54.4599 35.7237 27.7428 -27.7758ZM31.6393 -34.1744C46.8176 13.6411 62.4209 50.624 72.5085 86.665C63.7863 59.3185 54.1672 32.3884 31.6393 -34.1744ZM31.6393 -34.1744C61.1016 37.8029 69.9015 58.8747 78.0057 84.6642C62.7437 48.9343 48.7717 11.8638 31.6393 -34.1744ZM36.3362 -38.3741C58.0463 22.4855 68.1529 51.1752 76.6052 80.8162C62.5258 38.3327 49.1452 -1.68591 36.3362 -38.3741ZM36.3362 -38.3741C62.0877 22.0675 73.1282 51.7846 82.1024 78.8153C67.3482 33.8235 49.8017 -10.5841 36.3362 -38.3741ZM41.2331 -42.0241C56.029 -0.704002 68.76 37.1633 79.9015 72.7684C68.0101 40.2259 57.4086 5.81175 41.2331 -42.0241ZM41.2331 -42.0241C66.2851 21.2589 75.8782 46.0378 85.3987 70.7676C67.6916 27.7772 51.9045 -15.2488 41.2331 -42.0241ZM46.5303 -44.5746C58.3006 -16.0051 73.7188 24.9697 83.5979 65.8201C76.5593 38.551 67.2133 11.6041 46.5303 -44.5746ZM46.5303 -44.5746C63.1927 -3.87564 74.6034 28.3789 89.0951 63.8193C78.3096 37.8147 66.995 11.9755 46.5303 -44.5746ZM52.0275 -46.5754C63.9259 -10.5526 74.4663 22.246 86.8942 57.7724C72.6086 21.1141 61.5605 -16.854 52.0275 -46.5754ZM52.0275 -46.5754C61.0244 -18.2201 77.0954 23.1137 92.3914 55.7716C77.1666 16.2883 60.4382 -24.2612 52.0275 -46.5754ZM57.3246 -49.126C65.6593 -19.4454 77.4383 16.2449 90.1905 49.7246C82.6891 19.0591 72.4583 -11.5842 57.3246 -49.126ZM57.3246 -49.126C68.5378 -20.1921 85.4734 14.3811 95.6877 47.7238C83.0037 10.1306 67.1262 -28.6746 57.3246 -49.126ZM64.4224 -46.729C71.2153 -26.5585 82.552 4.67717 92.0863 37.8288C82.7012 8.28666 73.1807 -18.5954 64.4224 -46.729ZM64.4224 -46.729C76.7233 -16.2338 86.4668 8.66247 97.5835 35.828C86.8437 6.36233 75.9187 -22.0136 64.4224 -46.729ZM72.9209 -40.484C78.6105 -20.6573 87.1574 4.21273 96.1829 31.98C87.3939 9.91152 79.4693 -15.7019 72.9209 -40.484ZM72.9209 -40.484C82.9543 -16.0221 95.6258 6.23927 101.68 29.9792C92.0102 8.10601 84.978 -13.5973 72.9209 -40.484Z" stroke="#2E7D32" stroke-width="0.6"/>
<path d="M31.308 -34.1241C55.2178 -54.4503 69.6564 -48.844 81.7743 -24.1963M31.308 -34.1241C51.6088 -53.4619 68.0536 -53.5674 81.7743 -24.1963M31.308 -34.1241C12.6168 -12.6269 -3.38268 7.35952 -7.57577 22.547M31.308 -34.1241C9.01542 -15.5041 -4.56877 5.24728 -7.57577 22.547M81.7743 -24.1963C92.1425 4.26684 94.7468 27.4885 92.1157 49.0211M81.7743 -24.1963C91.6579 3.17768 96.1186 27.3456 92.1157 49.0211M92.1157 49.0211C86.0362 72.8231 70.456 91.4002 46.1997 108.588M92.1157 49.0211C88.9967 70.9177 70.4578 88.093 46.1997 108.588M46.1997 108.588C23.563 126.985 5.23387 120.175 -3.02553 92.0414M46.1997 108.588C22.7664 128.632 3.22929 119.986 -3.02553 92.0414M-3.02553 92.0414C-12.2313 61.8564 -14.1507 40.7663 -7.57577 22.547M-3.02553 92.0414C-12.7298 64.605 -10.5399 39.8511 -7.57577 22.547" stroke="#3F7D40"/>
</svg>
