<svg width="736" height="858" viewBox="0 0 736 858" fill="none" xmlns="http://www.w3.org/2000/svg">
<path d="M145 215C143.098 214.953 141.471 216.002 139.509 216.133C134.908 216.439 132.341 219.856 132.132 224.006C131.727 232.021 126.741 237.677 122.948 243.968C122.048 245.46 120.187 245.972 118.504 246.513C112.653 248.391 108.207 251.681 106.451 257.986C105.521 261.324 102.587 263.403 100.481 265.984C98.3263 268.624 95.7386 270.615 94.7476 274.434C93.7837 278.149 89.1006 277.647 85.9901 277.835C81.9741 278.079 78.4622 278.912 74.9542 280.919C70.8385 283.275 67.7959 281.986 65.4227 279.062C59.4221 271.669 55.2889 271.953 51.7393 281.092C48.7802 288.711 42.7696 293.623 38.4953 299.996C38.3665 300.188 38.1348 300.311 38.0047 300.503C32.8752 308.049 35.3342 313.155 44.5001 314C53.2518 314.806 55.541 318.386 51.3744 325.93C49.3054 329.677 49.9761 332.295 52.5224 334.978C54.1422 336.686 55.1923 338.974 57.1686 339.947C58.8239 340.216 59.7064 339.108 60.9751 338.868C63.8614 338.321 65.3915 339.002 64.9486 341.992C64.3919 345.749 66.028 348.64 68 351.5C70.7495 355.487 71.2249 360.475 73.925 364.549C76.2324 368.031 79.3955 370.035 83.4858 368.946C88.2138 367.687 92.8413 368.726 97.498 368.694C102.828 368.658 107.25 368.869 110.5 373.5C114.698 372.195 117.141 375.905 120.945 376.739C121.44 376.08 122.29 375.084 122.983 373.989C123.892 372.55 125.482 372.651 126.45 373.106C127.922 373.797 128.463 375.141 127.558 377.027C125.745 380.806 127.246 383.751 130.847 386.073C131.884 386.268 131.804 383.608 133.481 384.67C133.488 386 134.856 387.564 133.471 388.971C132.816 389.638 132.833 390.423 133.055 390.978C133.547 392.214 134.137 394.147 135.033 394.364C139.821 395.518 138.289 402.464 143.975 403.193C149.242 403.868 152.729 408.571 157 411.5" stroke="black" stroke-width="3" stroke-linecap="round" stroke-linejoin="round"/>
<path d="M303.499 767C302.663 767.663 301.827 768.326 300.788 769.149C301.468 770.281 302.157 771.429 302.931 772.718C302.86 772.848 302.747 773.246 302.489 773.489C299.023 776.762 296.544 780.324 297.921 785.521C298.247 786.747 298.191 788.144 297.087 789.568C294.158 793.348 293.841 797.697 294.353 802.516C295.091 809.455 294.857 816.5 294.993 823.5C295.154 831.731 297.007 839.6 300.546 846.977C304.849 855.945 309.673 857.975 318.434 853.86C323.172 851.635 328.164 850.654 333.017 849.053C336.883 847.777 342.599 841.138 343.028 837.003C343.185 835.485 343.762 834.014 343.979 832.497C344.408 829.507 345.981 826.556 344.039 823.475C343.132 822.035 345.044 820.928 345.067 819.369C343.162 818.123 342.225 816.853 342.096 814.018C341.996 811.793 339.414 808.605 337.718 806.759C333.768 802.459 333.222 797.603 332.772 792C330.829 792 329.131 792 326.812 792C327.776 786.362 326.241 782.533 321.728 779.191C319.87 777.814 318.97 773.994 317.196 771.367C314.743 767.734 312.079 766.432 307.993 766.953C306.866 767.097 305.666 766.667 304.499 766.5" stroke="black" stroke-width="3" stroke-linecap="round" stroke-linejoin="round"/>
<path d="M220.5 365C222.306 366.534 225.026 366.95 226.025 369.467C226.066 371.395 224.519 372.283 223.536 373.535C222.834 372.833 222.167 372.167 221.476 371.476C218.971 372.993 219.905 375.522 220.133 377.485C220.355 379.389 221.949 381.167 220.064 382.993C216.971 383.312 216.209 380.505 214.375 378.889C212.519 379.446 210.726 381.475 208.515 379.979C205.154 377.705 203.132 379.407 200.956 381.962C197.82 385.643 195.478 390.218 189.951 391.835C188.384 391.196 187.744 389.08 186.461 387.45C187.944 383.826 190.738 388.257 193.058 386.135C190.612 381.046 192.468 376.161 195.064 371.536C196.26 369.404 194.383 368.462 193.925 367.024C193.418 365.436 191.319 365.552 190.578 366.105C188.432 367.706 186.165 366.884 183.999 366.942C179.497 367.063 178.705 366.114 181.143 362.599C183.132 359.731 180.196 358.858 180.364 357.053C178.404 356.772 177.637 357.638 176.961 358.98C176.166 360.559 175.139 362.473 173.028 361.9C171.563 361.502 170.046 360.766 169.668 362.536C169.471 363.461 170.267 365.62 172.523 365.097C172.592 365.081 172.995 366.505 173.549 366.983C173.791 367.61 173.128 367.944 172.003 368.033C166.893 368.436 166.493 368.836 168.637 373.437C169.374 375.021 167.677 375.017 167.975 376.008C168.389 377.381 167.862 378.655 169.311 380.18C171.204 382.172 174.027 384.917 171.496 388.497C171.362 388.687 170.991 388.917 171.025 388.988C174.818 396.959 168.173 398.617 163.524 401.538C162.874 401.946 162.544 402.863 162.025 403.601C162.762 406.652 167.158 404.957 168.126 408.177C165.523 412.283 160.048 409.971 156.998 413.001C157.999 415.001 159.002 417 160.003 418.999C158.086 424.087 153.136 424.404 148.998 425.907C149.091 429.627 153.108 426.71 154.04 429.101C153.875 431.61 150.811 430.304 150.006 431.999C149.378 435.344 154.605 437.764 150.919 441.096C152.334 442.211 153.036 441.863 154.022 441.576C159.12 440.094 160.318 440.82 160.933 446.008C161.218 448.412 162.358 449.53 164.501 449.998C169.04 450.988 173.236 451.607 177.283 455.179C181.319 458.741 187.995 457.305 193.502 457.351C197.729 457.386 202.056 455.403 202.164 462.498C202.203 465.057 205.457 465.858 207.428 464.858C210.118 463.495 212.809 463.015 214.551 458.723C217.062 452.534 223.32 447.873 230.999 446.988C233.507 446.699 235.86 447.094 236.933 449.53C238.105 452.192 235.318 453.024 233.982 454.477C237.633 459.135 242.151 460.017 248.476 456.949C251.289 455.585 253.754 453.518 256.523 452.042C259.317 450.552 260.808 454.284 263.505 454.057C267.246 453.742 270.702 454.208 274.204 451.241C277.031 448.847 281.208 448.925 285.613 450.726C291.583 453.167 298.282 452.513 305.955 450.786C308.533 451.967 309.329 458.184 315 458" stroke="black" stroke-width="3" stroke-linecap="round" stroke-linejoin="round"/>
<path d="M12.9993 388.5C12.2883 391.156 13.2797 394.081 11.1348 396.615C10.3343 397.56 10.7678 399.752 12.457 401.055C14.4913 402.624 15.8495 404.713 14.6497 407.479C20.1139 414.281 28.2959 416.46 35.998 419.503C37.5984 420.135 38.8777 420.115 40.5583 419.097C43.8577 417.099 47.374 415.263 51.0382 414.125C54.0745 413.182 52.0028 410.069 54.3941 408.929C56.1642 410.305 58.4638 411.233 61.7723 411.585C58.7011 416.906 55.5918 422.064 50.8836 425.333C45.0266 429.401 37.6077 430.342 30.9546 432.883C29.794 433.326 27.1878 434.169 26.9604 431.003C26.8096 428.902 24.6308 428.768 23.5498 429.145C22.0667 429.662 21.3246 431.233 22.4794 433.013C23.4111 434.449 23.914 436.229 25.0383 437.464C36.0046 449.511 47.7301 460.79 60.0116 471.486C65.1265 475.94 77.0178 475.771 82.4386 470.932C85.1362 468.524 87.7746 467.302 91.4768 466.825C99.3361 465.812 106.552 454.602 104.394 447.03C103.001 442.146 105.385 438.51 106.999 434.5" stroke="black" stroke-width="2" stroke-linecap="round" stroke-linejoin="round"/>
<path d="M367.5 385.5C362.346 389.48 357.051 392.913 349.992 391.543C347.135 390.988 344.229 391.626 342.059 393.566C340.3 395.14 339.616 397.242 343.009 397.957C343.951 398.155 344.462 398.894 345.48 399.101C349.641 399.945 353.121 401.649 352.011 407.002C351.804 408.003 353.552 408.312 353.152 409.103C349.385 413.791 344.999 417.413 342.916 422.969C341.205 427.532 336.615 428.56 332.49 428.859C327.409 429.226 324.497 431.884 322.531 436.015C319.586 442.204 318.244 448.917 316.427 455.48C315.756 457.901 316.105 461.109 312.52 462.074C311.137 462.447 310.145 464.776 310.626 465.403C313.415 469.031 309.911 474.433 314.431 477.599C316.209 478.844 314.326 485.205 311.995 486.993C311.336 487.499 310.615 487.925 309.553 488.634C312.81 491.225 315.006 494.018 310.138 497.689C314.921 499.359 315.054 505.088 319.967 506.151C320.968 506.367 321.32 508.459 320.538 510.019C319.757 511.575 318.721 512.025 317.002 512.078C315.02 512.139 314.124 510.388 312.223 510.442C306.577 513.5 308.329 519.817 307.012 525.003C306.763 525.982 306.667 527 306.5 528" stroke="black" stroke-width="2" stroke-linecap="round" stroke-linejoin="round"/>
<path d="M418 518C411.339 527.478 405.672 537.908 394.009 542.524C390.709 543.83 388.089 546.305 386.069 549.051C380.14 557.114 371.877 562.131 363.473 566.953C358.502 569.806 354.591 572.974 355.977 579.505C356.146 580.302 356.072 581.889 355.99 581.897C350.389 582.454 348.241 589.664 341.995 589.054C338.849 588.747 335.649 589 331.792 589C328.097 593.509 329.439 602.348 321.157 604.712C317.607 601.736 313.047 601.736 308.5 605C302.167 609.546 299.178 618.584 300.942 626.513C302.292 632.576 304.498 638.464 302.196 645.068C300.757 649.2 303.962 653.342 305.076 657.248C304.576 659.706 301.839 659.268 300.997 661.046C303.302 663.701 302.658 666.307 299.471 666.816C296.125 667.351 294.316 669.964 290.745 670.867C289.801 670.398 288.199 669.602 286.308 668.662C280.221 675.259 272.842 677.98 264.035 675.568C263.645 680.406 261.805 684.069 258.119 687.325C256.027 680.758 250.183 681.016 245.223 680.182C240.742 684.755 238.316 690.656 234.957 696.359C237.595 697.093 240.709 697.379 242.066 700.937C239.887 703.387 236.429 704.777 234.29 707.854C233.213 709.404 230.531 710.927 227.37 709.245C225.892 708.459 222.156 707.388 220.87 711.459C220.294 713.281 218.44 712.543 216.463 712.26C209.904 711.318 205.506 706.287 199.528 704.412C196.791 703.553 194.393 701.804 191.563 700.818C187.513 699.407 184.157 696.461 182 692.5C179.924 688.686 177.088 685.904 172.5 685.5" stroke="black" stroke-width="3" stroke-linecap="round" stroke-linejoin="round"/>
<path d="M510.5 317.5C510.853 320.709 509.525 323.024 507.046 325.056C505.049 326.693 503.347 328.667 501.919 330.949C500.123 333.818 501.397 336.596 503.517 336.731C507.221 336.968 508.305 339.789 510.64 341.281C512.535 342.491 514.252 345.192 517.537 344.112C519.304 343.531 520.096 345.195 520.009 347C519.919 348.883 520.39 350.465 522.715 350.653C521.783 352.549 521.08 352.969 518.975 352.686C514.75 352.119 510.16 351.856 508.866 357.972C508.471 359.841 506.981 362.62 503.97 359.906C503.457 360.637 502.943 361.297 502.506 362.003C498.801 367.982 498.833 368.026 504.988 372.018C506.072 372.722 507.698 373.543 507.871 374.523C508.421 377.633 510.606 377.08 512.497 376.96C515.862 376.747 517.178 378.433 516.971 381.498C516.762 384.573 518.056 387.796 514.125 390.204C511.569 391.77 512.52 395.081 515.024 396.969C517.956 399.178 519.146 401.63 516.86 404.732C518.29 407.42 522.482 404.036 522.626 408.927C521.995 410.5 520.223 412.197 522.633 415.749C524.636 418.698 522.761 423.831 523.332 428.023C523.493 429.198 523.158 430.265 523.932 431.541C526.1 435.114 527.604 438.829 525.078 443.047C524.388 444.199 525.086 445.812 526.048 446.907C524.238 449.717 518.647 445.255 518.959 451.074C514.49 450.788 510.69 448.049 506.305 450.278C504.206 447.349 505.327 442.8 501.401 440.876C497.348 445.907 491.92 448.834 485.305 451.683C486.577 445.956 480.146 445.707 479.732 441.435C478.137 441.92 477.189 443.45 475.22 442.831C469.174 435.156 458.589 433.688 451.529 426.97C450.488 425.98 449.833 426.929 448.992 427.046C448.656 428.949 450.353 429.991 451.182 431.265C450.86 431.848 450.762 432.333 450.487 432.475C448.214 433.645 445.901 434.701 447.482 438.009C448.417 439.964 446.7 440.513 445.479 440.938C444.399 441.314 443.08 441.043 443.032 439.499C442.971 437.496 442.137 438.048 440.539 437.774C435.146 436.848 429.799 438.764 423.926 437.693C424.544 434.138 427.124 431.029 425.413 426.815C420.462 429.237 414.474 426.295 409.874 430.873C409.035 431.708 406.45 431.376 405.003 429.997C403.345 428.418 401.9 426.554 399.5 426" stroke="black" stroke-width="3" stroke-linecap="round" stroke-linejoin="round"/>
<path d="M144.5 614.5C146.413 619.951 148.625 625.255 151.983 630.012C152.275 630.424 152.199 631.317 152.52 631.453C157.732 633.662 157.949 638.402 158.507 642.999C159.001 647.068 160.479 650.816 163.038 653.969C166.792 658.593 165.923 664.311 166.883 669.521C169.273 682.486 174.192 693.834 182.779 704.183C190.818 713.873 195.507 725.804 198.992 738.002C200.503 743.294 203.995 747.655 205.664 752.948C206.879 756.805 207.773 760.572 207.438 764.495C206.926 770.485 208.855 775.261 213.5 779" stroke="black" stroke-width="3" stroke-linecap="round" stroke-linejoin="round"/>
<path d="M216 123.5C216 116.928 213.532 113.383 206.98 111.055C205.33 110.468 203.968 109.769 204.046 108.002C204.303 102.226 200.458 99.9497 196.014 97.9691C193.591 96.8895 190.895 96.0156 189.976 93.007C189.808 92.4565 189.401 91.6295 188.99 91.5548C181.67 90.2228 181.948 83.1366 178.951 78.5318C178.363 77.6288 178.386 76.7732 178.548 76.01C179.3 72.4597 176.945 71.2429 174.554 72.1426C168.968 74.2439 165.877 71.428 163.003 67.4974C161.227 65.068 159.705 64.2065 155.962 64.4836C152.228 64.76 147.481 63.8099 143.493 62.0158C141.268 61.015 141.437 59.5776 141.902 57.4782C142.544 54.578 141.454 52.3335 138.001 51.9898C131.825 51.3749 126.086 50.1095 125.587 41.7807C121.346 44.3797 117.1 41.5416 113.403 43.8451C113.244 43.9444 110.885 42.3877 110.988 40.4991C111.183 36.9142 110.444 33.5044 113.85 30.3387C117.692 26.7682 121.851 23.4675 124.93 18.7829C126.484 16.4207 131.958 14.0514 136.491 16.021C139.417 17.2926 142.109 18.0478 144.453 13.9695C143.183 13.1494 141.866 12.299 140.731 11.5666C141.572 10.0137 142.706 9.53848 143.464 10.0526C149.146 13.9073 153.75 11.2038 158.549 8.07515C160.761 6.63308 163.445 5.81543 166.016 5.0543C168.35 4.36317 169.762 5.33861 173 8.99981C178.268 6.47733 180.542 7.14199 183.052 11.4695C184.188 13.4276 185.681 14.9295 188.495 15.092C197.305 15.6009 201.179 24.9899 197.972 31.9869C197.471 33.0793 197.471 33.8713 197.947 35.0216C200.278 40.6496 204.052 42.7545 210 41.4991C210.512 41.391 211.022 41.2723 211.547 41.1556C219.431 53.9287 232.827 53.5856 246.427 53.971C251.607 48.2017 260.475 45.4808 267.61 40.1471C270.357 38.0937 274.48 39.178 277.998 38.9645C282.073 38.717 285.037 39.9438 287.632 43.4007C289.718 46.1804 292.362 48.9038 296.003 49.9903C298.852 50.8406 299.558 53.7753 301.393 55.4747C303.562 55.92 303.109 52.8194 305.63 53.0598C307.471 53.9448 308.279 55.1356 307.129 58.0507C305.569 62.003 303.664 65.8753 303.825 70.5059C303.932 73.6114 299.63 75.7079 300.888 78.8573C294.982 82.4343 288.331 83.7682 287.354 91.9825C286.581 98.488 280.717 99.1601 275.5 99.9988C274.292 100.193 272.785 99.3319 272.044 101.129C271.599 102.245 272.474 103.16 273.047 103.966C274.775 106.393 275.765 108.07 273.188 111.157C270.244 114.685 275.323 122.824 279.999 123.014C280.843 123.049 281.806 122.638 282.988 123.988C281.836 130.249 284.763 135.625 288.999 140.499C287.638 142.775 284.913 142.273 282.936 143.386C280.888 144.54 278.438 144.057 277.228 147.401C276.244 150.12 270.162 148.642 268.512 145.493C267.603 143.759 266.462 142.089 267.193 139.283C263.768 141.383 260.197 141.227 258.477 144.488C257.945 145.495 256.742 145.139 256.022 144.926C254.998 144.625 254.828 143.524 255.004 142.501C255.321 140.665 257.417 138.405 254.938 137.12C252.426 135.817 251.069 138.515 249.71 140.332C247.407 137.855 247.405 134.608 245.106 132.39C243.141 130.494 241.954 129.877 239.46 131.435C233.143 135.383 229.845 134.992 224.523 129.975C222.066 127.659 218.071 127.46 216.5 124" stroke="black" stroke-width="3" stroke-linecap="round" stroke-linejoin="round"/>
<path d="M472.5 315C469.551 321.12 465.116 316.952 462.088 315.775C456.391 313.561 451.01 311.959 444.987 313.962C443.465 314.467 442.492 313.605 441.973 312.009C440.071 306.16 440.039 306.19 434.492 308.984C433.558 309.454 432.515 309.709 431.211 310.174C427.443 307.021 423.086 304.51 418.465 302.585C416.332 301.697 415.832 300.585 415.96 298.498C416.19 294.752 414.251 292.835 410.501 293.021C406.407 293.225 404.346 289.945 401.318 287.551C399.825 290.08 397.13 290.266 395 291.5" stroke="black" stroke-width="3" stroke-linecap="round" stroke-linejoin="round"/>
<path d="M314.499 577.5C311.475 575.105 306.868 576.068 304.243 572.172C303.455 571.004 300.072 572.52 300.006 575.5C299.969 577.182 299.999 578.866 299.999 579.649C298.998 581.33 298.016 581.21 297.524 580.952C291.344 577.71 286.829 582.99 281.517 584.088C280.531 584.292 279.598 585.549 279.999 587C281.09 590.943 278.388 592.048 275.495 592.987C275.193 593.084 274.717 592.857 274.516 593.021C270.256 596.484 265.433 597.827 259.998 597.008C259.006 596.859 257.782 597.863 257.626 598.088C253.272 604.346 247.103 602.072 241.511 601.398C236.983 600.852 232.497 601.049 227.999 601.07C225.772 601.08 224.987 601.915 224.647 604.96C224.091 609.93 224.255 614.196 225.734 619.08C227.516 624.959 225.195 626.489 217.539 625.358C218.953 627.307 219.455 629.222 218.942 630.983C217.579 635.664 221.015 639.003 222.121 642.966C222.563 644.55 224.438 643.89 226.018 643.608C229.307 643.022 232.793 641.288 235.874 643.778C236.797 647.551 231.453 647.593 231.999 651" stroke="black" stroke-width="3" stroke-linecap="round" stroke-linejoin="round"/>
<path d="M239.001 207C237.495 210.515 235.523 213.443 232.07 215.611C228.107 218.099 226.731 222.212 226.94 227.003C227.195 232.825 227.101 238.669 226.956 244.499C226.89 247.125 227.974 249.258 228.986 251.507C230.764 255.46 230.823 260.318 235.009 262.988C236.443 263.903 235.953 265.267 235.988 266.5C236.039 268.332 235.316 270.584 236.13 271.921C238.517 275.837 236.832 277.587 233.552 279.583C229.999 281.745 232.589 285.513 232.055 288.51C231.618 290.966 233.847 291.183 235.461 292.072C237.889 293.408 242.174 294.112 238.134 298.619C236.833 300.071 238.518 302.139 240.602 303.011C239.287 305.257 236.023 305.009 234.813 307.587C237.001 310.936 239.857 308.003 240.825 307.268C242.932 305.67 244.933 306.099 247.002 306.038C249.517 305.963 252.127 306.396 253.375 303.231C256.672 308.889 262.162 309.489 267.508 309.907C270.736 310.159 273.785 309.794 273.004 314.5C272.737 316.107 274.432 316.45 274.974 317.514C275.524 318.591 276.767 319.786 275.954 320.968C272.061 326.631 272.873 334.299 267.983 339.483C266.898 340.634 265.825 341.571 264.047 342.143C258 344.088 256.963 346.459 257.968 353.005C258.31 355.239 257.562 357.406 255.971 358.97C251.47 363.393 255.212 368.129 255.871 372.443C256.144 374.231 257.601 376.959 258.704 378.954C260.632 379.279 260.442 376.828 262.509 376.99C264.589 378.209 267.11 381.883 269.83 379.779C272.295 377.874 273.898 374.254 272.717 370.345C270.563 369.897 268.342 369.916 266.954 367.868C267.305 366.327 270.272 365.771 268.15 362.89C265.122 358.781 263.468 353.809 263.586 348.059C266.996 347.871 269.2 345.365 271.53 342.308C273.219 344.769 275.685 346.414 272.501 349" stroke="black" stroke-width="3" stroke-linecap="round" stroke-linejoin="round"/>
<path d="M680 311.999C685.07 312.751 688.052 309.048 691.465 306.453C694.465 304.173 697.169 301.502 699.999 298.999C704.568 294.957 710.509 294.576 716.002 293.006C718.211 292.375 719.338 294.068 719.923 295.53C721.486 299.433 724.718 299.396 728.085 300.007C727.821 295.903 724.26 294.463 722.932 291.53C721.471 288.305 720.624 285.598 724.482 283.467C726.253 282.489 727.87 281.214 729.493 279.99C734.202 276.439 735.007 273.853 733 268.999C732.083 266.782 725.536 263.417 722.522 264.096C720.482 264.555 718.857 264.648 717.515 262.987C716.081 261.211 713.949 261.667 712.557 262.159C710.807 262.778 709.709 263.335 708.475 261.516C707.138 259.546 708.53 258.231 709.535 257.029C714.322 251.301 713.86 247.414 708.05 243.426C706.87 242.616 706.333 244.035 705.5 243.499" stroke="black" stroke-width="3" stroke-linecap="round" stroke-linejoin="round"/>
<path d="M271.5 350.5C272.892 354.56 277.219 354.086 279.765 356.2C281.89 354.627 280.094 350.439 283.493 350.625C287.013 350.817 282.71 355.894 286.998 356.232C291.058 356.183 295.316 355.682 298.148 351.091C299.283 349.253 302.8 350.011 304.524 347.426C306.454 349.735 307.806 351.561 307.101 354.524C306.773 355.899 306.154 358.086 308.033 358.926C310.123 359.859 310.72 357.408 311.978 356.47C312.422 356.138 312.608 355.461 313.04 354.722C315.796 356.459 319.083 356.811 321.114 359.926C322.588 362.187 328.206 361.443 328.87 358.965C329.74 355.721 331.328 354.556 334.503 354.977C336.077 355.185 336.1 352.384 337.998 353.097C340.634 359.372 347.113 361.266 352.019 364.975C356.089 368.053 360.544 369.061 365.524 367.06C366.924 366.497 368.501 368.62 368.36 368.938C366.557 373.031 371.203 376.924 368.539 381.025C366.577 384.044 368.889 386.268 370.509 388.493C372.523 391.261 375.48 389.713 378.007 389.917C379.194 390.013 380.233 388.889 379.955 387.509C379.664 386.066 380.264 384.823 381.053 384.054C384.465 380.732 384.397 377.26 381.712 373.582C383.245 371.764 384.622 370.132 386 368.5C386.309 365.311 381.512 365.334 382.151 360.949C382.916 355.703 384.142 351.745 389.014 349.531C392.29 348.042 395.143 345.454 396.76 342.851C400.201 337.308 405.112 337.445 409.97 338.195C413.223 338.697 416.328 338.429 419.5 338.5" stroke="black" stroke-width="3" stroke-linecap="round" stroke-linejoin="round"/>
<path d="M149.5 64C151.042 67.0497 149.469 70.1367 147.824 71.8292C144.972 74.764 142.157 77.8718 138.955 80.444C133.228 85.0434 131.753 87.4294 134.105 93.4587C137.712 102.705 139.56 112.126 138.963 121.998C138.73 125.86 141.376 127.458 144.024 128.957C147.856 131.126 152.058 132.633 155.504 135.494C157.471 137.127 159.214 136.705 161.051 135.058C161.753 134.429 162.755 133.599 164.33 134.121C166.145 137.191 163.225 143.137 168.081 144.078C170.134 144.475 173.603 148.492 175.764 143.511C177.264 144.711 178.468 145.518 179.485 146.515C184.297 151.232 183.667 154.789 176.967 155.781C170.306 156.767 166.658 161.43 161.587 164.407C163.506 169.398 163.479 173.722 161.511 178.005C160.131 181.008 160.918 183.511 163.5 185.5" stroke="black" stroke-width="3" stroke-linecap="round" stroke-linejoin="round"/>
<path d="M123.5 517.5C123.34 519.529 120.974 520.976 122.392 523.559C123.304 525.221 120.403 525.141 119.998 526.499C119.828 529.23 124.926 531.301 121.027 534.444C121.846 536.611 125.496 537.821 123.044 541.034C122.722 541.455 122.754 542.47 123.036 542.98C127.796 551.562 126.382 561.454 128.938 570.517C131.549 579.772 133.878 589.121 135.901 598.521C136.775 602.58 141.176 604.236 141.608 608.489C141.784 610.222 143.166 611.833 144 613.5" stroke="black" stroke-width="3" stroke-linecap="round" stroke-linejoin="round"/>
<path d="M217.5 196.5C222.435 200.009 222.516 202.975 217.453 205.919C215.841 206.857 214.353 208.299 214.167 209.525C213.519 213.778 210.984 214.24 207.498 214.042C203.941 213.839 201.921 214.596 203.869 219.057C205.397 222.556 200.736 226.682 197.067 224.865C190.705 221.714 186.18 223.726 181.96 228.464C181.504 228.976 180.495 228.995 179.018 229.481C177.395 228.636 180.707 224.306 177.037 222.903C174.22 221.826 171.053 221.09 168.903 218.262C166.855 219.877 164.021 218.044 162 220" stroke="black" stroke-width="3" stroke-linecap="round" stroke-linejoin="round"/>
<path d="M704.5 246.5C705.819 244.164 703.832 241.167 707.192 238.491C705.533 237.307 704.017 236.612 703.054 235.456C701.232 233.269 699.218 233.599 697.543 235.05C691.895 239.939 684.945 241.061 677.99 241.917C673.435 242.477 670.05 239.318 666.318 236.879C659.445 240.14 652.94 243.575 648.756 250.861C646.652 254.526 641.979 256.729 637.001 255.99C632.871 255.377 630.156 256.767 628.937 260.982C628.516 262.441 627.882 263.975 626.509 265.013C621.785 268.584 616.727 271.728 613.426 276.954C611.933 279.318 609.538 280.414 606.458 279.099C605.58 278.723 604.091 278.485 602.989 279.489C600.167 282.061 596.352 282.164 592.963 282.808C590.268 283.32 589.43 284.307 590.077 286.477C590.737 288.689 592.101 290.784 594.986 289.952C596.823 289.422 598.234 287.85 600.106 290.423C601.95 292.957 602.534 294.793 600.573 297.552C598.287 300.767 602.624 302.348 603 305" stroke="black" stroke-width="2" stroke-linecap="round" stroke-linejoin="round"/>
<path d="M390.501 515.5C390.675 517.714 389.452 519.984 387.578 519.29C385.004 518.337 384.728 521.181 382.859 520.986C383.499 522.966 385.439 524.698 381.57 526.18C376.054 528.293 375.424 530.672 377.002 536.004C373.898 539.802 367.742 531.897 365.65 539.55C363.502 537.782 363.543 534.728 360.879 533.749C357.627 535.873 356.887 538.893 356.955 542.501C357.048 547.472 356.91 547.475 352.001 546.5C348.35 545.776 340.187 549.762 339.103 553.529C336.783 561.585 331.107 565.183 323.53 567.117C321.612 567.606 319.681 569.059 318.825 571.355C315.899 569.788 312.854 568.991 310.606 570.643C308.212 572.402 311.606 573.802 312.001 575.5" stroke="black" stroke-width="3" stroke-linecap="round" stroke-linejoin="round"/>
<path d="M194.501 147C194.911 150.41 190.859 149.358 189.873 151.818C191.609 153.853 191.038 157.347 193.982 159.033C194.449 159.3 195.006 160.042 194.95 160.494C194.082 167.427 200.017 170.689 203.088 175.444C204.277 177.285 205.408 180.583 209.133 178.208C209.586 177.92 212.403 179.215 213.227 181.931C214.689 186.751 214.628 193.316 222.487 193.742C223.82 193.814 226.055 196.088 226.158 198.994C226.242 201.366 227.653 202.799 230.962 203.271C236.169 204.013 240.751 207.212 245.009 210.49C247.035 212.05 245.976 213.749 244.937 214.945C243.125 217.03 241.848 219.173 242.025 222.431C245.57 222.902 249.128 223.825 251.163 227.25C257.445 222.604 260.651 222.714 266.447 228.058C268.272 229.74 271.056 230.356 272.063 233.092C271.871 235.57 269.115 235.806 267.731 237.909C270.656 239.02 270.868 244.549 276.147 242.351C276.587 242.168 280.16 245.524 282.386 247.156C286.911 250.473 292.356 248.969 297.026 250.94C297.331 251.068 298.098 250.42 298.485 249.986C302.106 245.929 305.771 242.218 306.24 236.018C306.59 231.388 307.216 226.237 310.992 222.491C315.136 218.38 318.074 212.803 324.908 211.216C319.356 209.67 316.656 203.77 310.506 203.408C307.123 203.208 304.037 201.785 304.013 197.5C304.005 196.078 303.244 195.135 301.997 195.051C299.288 194.869 297.929 192.979 297.091 190.962C296.19 188.797 294.578 188.636 293.017 189.06C285.946 190.982 283.087 185.606 279.529 181.475C278.669 180.476 278.326 179.029 277.462 178.034C276.284 176.676 274.967 176.238 273.474 177.977C270.015 182.002 265.701 181.851 260.981 180.572C257.758 179.698 254.522 178.993 251.395 181.886C249.29 183.832 245.299 183.376 243.584 186.053C241.461 189.366 240.923 193.47 242.637 196.932C244.687 201.071 244.273 203.678 240.001 205.5" stroke="black" stroke-width="3" stroke-linecap="round" stroke-linejoin="round"/>
<path d="M698.5 290.001C694.075 285.755 693.716 281.073 697.224 276.287C695.147 273.631 691.456 274.645 690.67 275.23C683.55 280.532 673.854 279.367 667 285.001C662.866 283.72 659.252 288.689 654.783 285.533C653.42 293.376 647.613 298.057 642.745 302.736C638.253 307.054 631.089 307.139 625.055 305.319C620.195 303.853 615.897 303.501 610.962 304.865C604.484 306.656 597.488 305.665 590.976 307.933C589.116 308.581 587.147 307.966 586.281 306.397C576.667 310.591 567.333 310.06 557.639 306.307C551.659 311.71 544.763 311.444 537.479 308.046C536.123 307.414 534.681 306.775 532.997 306.971C526.863 307.683 522.588 304.622 520.109 299.449C518.335 295.748 513.916 296.321 513.252 297.193C509.204 302.504 504.82 299.281 500.5 298.501" stroke="black" stroke-width="3" stroke-linecap="round" stroke-linejoin="round"/>
<path d="M300 250C303.156 252.513 306.312 255.027 309.455 257.529C312.254 255.928 314.65 255.72 317.042 258.463C321.856 263.983 329.012 266.323 334.552 270.937C337.766 273.614 341.502 275.664 345.003 278.001C346.757 278.181 347.463 276.26 349.065 275.984C349.348 276.14 349.701 276.284 349.996 276.506C352.476 278.366 354.717 280.484 357.421 282.13C359.546 283.423 360.926 285.092 363.578 283.105C364.462 282.443 366.504 282.683 366.976 284.506C368.067 288.722 371.311 289.814 375.002 289.944C377.709 290.038 379.102 292.502 381.382 293.132C385.235 288.808 385.273 288.541 394.449 291.981C394.709 294.265 394.644 296.43 397.448 297.621C399.14 298.34 400.567 300.061 400.028 302.506C399.498 304.912 401.696 306.133 403.081 306.843C405.033 307.844 406.161 308.785 406.003 311C405.822 313.554 403.781 313.749 401.994 313.949C400.234 314.147 399.191 315.001 398.391 316.459C399.793 318.503 402.524 319.329 403.124 321.956C402.7 324.174 400.751 325.066 399.256 326.174C403.72 332.472 412.712 331.389 416.5 338" stroke="black" stroke-width="3" stroke-linecap="round" stroke-linejoin="round"/>
<path d="M635.5 350.499C636.795 352.515 638.908 352.669 639.894 350.939C643.092 345.33 647.733 343.433 653.996 343.31C657.023 343.251 660.011 341.194 663.209 339.967C664.675 342.264 664.441 345.138 664.288 347.485C664.087 350.554 664.083 352.724 666.945 354.584C668.878 355.84 668.508 358.247 667.448 359.967C664.819 364.232 663.374 369.059 660.137 373.109C656.774 377.318 655.822 382.932 654.069 388.023C653.802 388.8 653.616 389.474 652.817 390.131C648.171 388.145 643.674 386.222 637.975 386.514C634.67 386.683 630.763 383.438 626.49 383.904C626.067 383.95 625.169 382.718 625.054 381.991C624.31 377.313 620.726 375.607 616.987 373.993C616.078 377.168 615.141 380.325 611.38 381.408C610.226 380.44 610.382 377.95 608 377.999" stroke="black" stroke-width="3" stroke-linecap="round" stroke-linejoin="round"/>
<path d="M281.5 772.5C274.982 769.915 268.948 772.412 263.043 774.615C260.505 775.562 257.552 775.49 255.409 777.92C253.522 780.059 252.052 782.048 251.976 784.999C251.757 793.384 248.889 796.3 241.096 800.192C235.781 802.847 232.01 801.802 228 798.5" stroke="black" stroke-width="3" stroke-linecap="round" stroke-linejoin="round"/>
<path d="M700.5 290C695.908 294.426 692.642 297.476 688 296C683.151 304.927 674.343 307.582 665.478 309.918C662.233 310.774 659.62 312.047 658.009 315.005C656.164 318.394 653.718 321.297 651.003 324.003C649.467 325.535 648.609 327.307 647.782 329.415C646.456 332.797 644.761 336.218 640.053 337.244C637.068 337.894 635.049 341.509 631.887 342.796C632.644 345.218 635.651 345.447 636.041 347.994C636.461 350.729 633.753 351.532 633 353.5C630.378 360.351 626.087 366.559 625.04 374.006C624.901 374.992 624.938 375.908 624 376.5" stroke="black" stroke-width="2" stroke-linecap="round" stroke-linejoin="round"/>
<path d="M74.9997 367.5C73.436 371.561 72.8824 376.139 69.0114 379.016C68.384 379.482 67.9715 380.277 66.9221 380.164C66.4479 379.943 65.8569 379.834 65.5174 379.483C60.8297 374.633 60.901 374.752 54.4591 377.917C52.663 378.8 51.2435 380.247 49.4695 380.921C47.119 381.813 44.1054 383.176 42.0908 381.397C36.2859 376.27 29.6855 379.432 23.4926 379.165C20.5191 379.037 16.3671 379.282 16.8845 384.511C16.9255 384.925 15.2828 386 14.5075 385.922C6.97661 385.166 6.19145 391.293 3.58984 395.991C8.27064 398.741 8.35865 393.092 10.5375 392.723C13.4406 392.232 15.7811 390.667 18.4997 390" stroke="black" stroke-width="2" stroke-linecap="round" stroke-linejoin="round"/>
<path d="M589.999 379.499C591.63 381.954 594.239 381.858 596.521 379.52C600.723 375.213 604.303 370.616 605.545 364.509C605.994 362.3 607.96 361.69 609.636 361.941C611.453 359.719 609.814 358.044 608.937 357.632C605.42 355.98 602.343 352.935 598.001 353.511C595.992 353.777 593.868 353.846 592.039 354.596C590.454 355.246 588.756 355.352 587.536 354.9C577.921 351.341 568.142 355.058 558.499 354.006C553.901 353.505 549.545 352.59 545.43 350.115C542.598 348.412 543.517 345.093 544.131 344.712C547.728 342.478 548.221 337.698 552.429 335.841C556.532 334.03 561.308 334.829 565.015 332.02C565.227 331.86 565.762 331.863 565.985 332.019C570.4 335.108 575.96 333.254 580.408 335.207C583.474 336.552 584.928 335.442 587.018 334.027C592.285 330.463 598.34 329.732 605.655 328.785C603.294 332.611 602.903 335.766 603.983 339.003C605.757 339.181 606.463 337.259 607.998 336.997C611.061 338.035 612.913 341.005 616.575 341.663C615.454 343.628 614.279 345.093 615.473 347.016C618.808 352.386 618.755 352.412 613.002 355.505C612.147 355.965 611.333 356.499 610.499 356.999" stroke="black" stroke-width="3" stroke-linecap="round" stroke-linejoin="round"/>
<path d="M303.001 664.5C306.94 665.447 307.437 667.875 306.596 671.522C305.808 674.942 304.948 678.388 304.933 682C304.918 685.592 303.692 688.882 301.009 691.508C295.406 696.989 292.69 704.412 292.52 711.512C292.409 716.117 293.275 721.645 295.147 726.691C293.92 727.468 292.71 728.234 291.09 729.261C298.177 733.068 294.178 739.202 295.186 745.149C290.411 744.627 286.145 743.383 282.455 746.445C281.511 747.229 280.12 747.206 279.947 748.995C279.504 753.572 276.914 757.037 274.154 760.618C272.378 762.92 270.41 766.175 273.001 769.5" stroke="black" stroke-width="3" stroke-linecap="round" stroke-linejoin="round"/>
<path d="M255 307.5C249.078 312.151 242.787 316.239 235.987 319.473C230.703 321.987 226.27 325.738 221.514 329.02C219.762 330.229 218.313 331.931 216.471 332.948C211.89 335.477 210.892 338.963 211.814 344.034C212.397 347.243 212.619 348.512 216.444 349.281C221.935 350.385 226.789 350.891 231.5 347.5" stroke="black" stroke-width="2" stroke-linecap="round" stroke-linejoin="round"/>
<path d="M163 186.5C158.598 192.694 153.048 197.875 147.997 203.497C146.471 205.196 145.172 213.888 145.964 216.013C146.63 217.799 147.828 218.12 149.502 218.024C151.329 217.919 153.169 218.059 155 217.987C158.541 217.85 159.644 219.126 161.529 222.723C163.976 227.393 163.659 231.09 163.107 235.513C163.014 236.255 164.326 237.173 165.218 238.298C168.193 234.707 171.08 235.96 174.033 238.461C174.971 239.255 176.176 239.726 177.452 240.148C179.309 240.763 181.432 237.042 182.333 240.05C183.239 243.077 186.353 245.235 185.927 248.49C185.002 255.564 188.853 259.973 194.053 263.422C197.76 265.88 199.872 268.089 198.16 273.055C196.737 277.186 197.915 278.375 202.578 280.23C201.095 276.168 205.235 275.853 206.609 273.565C207.325 272.374 209.434 272.436 210.45 273.546C213.315 276.679 215.253 274.635 216.939 272.453C217.933 271.167 218.652 269.449 220.474 270.078C222.487 270.773 221.985 272.847 221.995 274.5C222.014 277.675 222 280.851 222 284.765C225.112 282.413 227.346 279.543 231 281.5" stroke="black" stroke-width="3" stroke-linecap="round" stroke-linejoin="round"/>
<path d="M519.5 297.5C520.5 296.5 521.5 295.5 522.471 294.528C518.926 290.881 519.484 286.151 520.194 282.033C521.077 276.92 519.732 273.549 515.026 270.938C511.634 274.379 506.127 273.327 501.591 276.015C504.562 279.174 502.424 281.895 500.945 284.468C499.058 287.754 500.657 291.216 499.964 294.492C498.901 299.51 500.687 303.775 502.983 308.009C504.775 311.312 503.443 321.479 500.999 323.999C500.671 324.338 500.217 324.609 500.019 325.009C498.603 327.856 493.776 328.202 494.147 331.985C494.442 334.991 496.833 337.425 498.482 340.011C498.96 340.76 499.226 341.643 499.717 342.756C496.754 346.056 494.262 349.177 489.066 350.304C483.351 351.544 477.871 354.713 476.892 361.985C476.587 364.246 475.109 366.395 473.944 368.468C473.507 369.246 472.798 370.402 471.505 369.985C466.288 368.305 463.154 372.077 459.599 374.672C457.126 372.002 455.656 368.808 453.028 366.469C448.428 362.375 443.18 363.087 440.044 368.525C439.629 369.245 439.291 370.22 438.518 369.948C433.801 368.285 431.356 372.361 428.029 374.056C424.13 376.042 421.01 375.784 418.393 371.579C416.126 373.952 414.792 377.119 410.773 377.741C408.875 375.437 407.882 370.635 402.457 371.797C401.791 371.94 400.532 369.31 399.405 367.77C394.669 369.847 390.288 374.395 384.5 370.5" stroke="black" stroke-width="3" stroke-linecap="round" stroke-linejoin="round"/>
<path d="M484.5 451C481.833 452.333 479.104 453.557 476.513 455.022C470.765 458.273 470.108 460.177 471.971 466.509C472.494 468.286 472.398 470.272 473.067 471.974C473.935 474.183 473.526 476.447 471.931 477.383C466.883 480.346 465.536 485.981 462.104 490.087C458.275 494.669 453.673 497.568 447.984 498.391C443.976 498.971 440.672 501.798 436.5 501.5" stroke="black" stroke-width="2" stroke-linecap="round" stroke-linejoin="round"/>
<path d="M147.501 456C144.788 458.415 144.955 463.034 140.343 463.87C148.888 472.052 148.911 472.778 141.501 480C139.054 479.797 138.457 476.688 135.21 476.316C134.221 481.526 137.323 489.444 128.001 490C125.703 488.61 128.499 485.098 125.23 483.976C123.738 484.641 122.965 486.77 120.493 486.611C117.475 486.417 116.681 489.674 116.183 491.548C115.011 495.967 116.705 500.507 117.164 504.983C117.36 506.891 119.736 506.859 121.501 506" stroke="black" stroke-width="3" stroke-linecap="round" stroke-linejoin="round"/>
<path d="M604 371C609.56 375.478 607.617 381.922 606.605 386.92C605.553 392.113 606.896 396.726 607.303 401.474C607.496 403.727 607.758 406.165 607.944 408.504C608.09 410.343 607.459 412.404 608.546 413.968C613.075 420.493 612.711 428.198 613.948 435.509C614.097 436.394 614.4 436.967 615 437.5" stroke="black" stroke-width="3" stroke-linecap="round" stroke-linejoin="round"/>
<path d="M383.5 383C386.805 388.405 392.212 392.199 394.746 398.099C396.012 397.704 396.741 396.792 398.007 396.944C398.973 397.06 399.333 397 399.004 397.498C398.531 405.506 398.634 413.186 408.81 414.561C407.961 420.887 402.68 422.085 398.188 424.074C399.869 427.948 399.222 430.807 395.483 431.943C389.586 433.733 386.161 436.733 387.938 443.516C388.549 445.852 386.4 448.129 385.283 449.292C382.462 452.229 381.585 454.652 384.619 458.271C381.391 458.935 378.681 459.47 377.863 462.968C377.516 464.452 375.948 464.461 374.43 463.077C372.462 461.282 367.481 463.078 365.957 465.472C364.118 468.361 362.714 472.144 358.232 470.951C356.599 476.932 360.542 482.453 359.205 488.545C358.727 490.725 360.863 492.588 363.971 493.16C368.682 494.027 368.766 494.869 366.882 500.344C364.73 498.477 363.106 495.566 359.449 497.398C357.856 498.196 357.107 495.89 356.024 494.971C353.216 492.588 350.177 491.396 345.586 492.366C347.434 495.109 344.897 499.309 349.991 500.058C350.39 500.117 350.876 500.964 350.968 501.505C352.057 507.892 353.003 514.284 354.783 520.562C355.233 522.15 353.509 525.393 351.894 526.313C348.586 528.196 347.525 531.676 345.007 534.008C343.661 535.255 343.046 536.872 340.539 537.254C338.031 537.636 337.154 540.944 337.083 543.502C337.007 546.247 335.885 548.558 335 551" stroke="black" stroke-width="3" stroke-linecap="round" stroke-linejoin="round"/>
<path d="M338.5 552.501C333.975 551.979 329.404 550.251 324.959 553.024C323.902 552.513 323.174 551.927 322.939 550.511C322.333 546.852 322.751 542.581 318.012 540.965C316.992 540.617 317.101 539.491 316.957 538.507C316.278 533.88 314.35 530.498 309.011 529.903C306.686 529.643 304.794 528.117 301.996 528.153C299.392 528.187 296.474 525.824 297.877 521.461C299.048 517.821 296.413 513.852 297.975 509.99C298.471 508.764 297.027 508.567 296.456 508.049C294.884 506.62 293.101 505.421 291.366 504.105C287.358 507.203 283.126 507.556 279.5 505.001C277.73 505.806 278.253 508.618 275.3 509.123C271.708 501.768 264.503 499.149 256.377 496.465C256.987 500.667 252.886 504.334 257.527 508.341C253.455 508.723 252.945 511.779 252.383 514.588C250.104 514.765 248.941 512.585 247 513.001C240.738 519.933 240.738 519.933 246.33 524.787C244.409 527.493 242.656 530.421 240.458 532.964C235.97 538.159 235.915 540.243 238.822 547.077C239.677 549.088 239.904 552.165 238.03 554.524C237.112 555.68 236.504 557.082 235.984 557.978C236.081 561.099 240.239 559.038 240.001 562C240 562.334 240.115 562.902 239.984 562.967C235.344 565.24 232.218 567.861 235.931 573.546C238.166 576.967 234.762 580.782 235.791 584.558C235.943 585.119 233.292 586.444 231.951 587.406C232.204 589.051 233.35 588.865 234.494 589.043C237.603 589.528 238.692 591.873 237.867 594.458C237.246 596.404 236.8 598.089 237.5 600.001" stroke="black" stroke-width="3" stroke-linecap="round" stroke-linejoin="round"/>
<path d="M236 539.999C233.053 539.946 232.569 537.431 231.107 534.787C229.506 539.292 228.052 543.591 223.003 544.516C222.812 544.551 222.501 544.861 222.524 544.995C223.545 550.995 216.521 550.932 215.066 555.036C212.994 555.098 210.863 552.382 208.961 555.476C207.602 557.688 208.326 560.95 211.648 565.188C204.456 567.534 198.136 565.365 191.892 561.639C189.652 566.25 192.402 571.256 189.976 575.744C186.942 573.266 183.438 573.326 180.583 575.13C177.614 577.007 175.975 575.579 174.003 573.938C171.154 575.154 169.907 578.084 168.21 580.17C165.212 583.856 160.39 582.046 157.494 584.993C157.077 585.418 156.58 585.765 155.428 586.725C154.718 587.627 156.737 588.848 157.161 589.368C160.352 593.283 161.664 596.538 156.596 600.134C155.214 601.115 157.219 604.629 154.014 605.547C151.821 606.176 151.077 608.577 149.319 610.162C146.672 608.989 146.914 601.838 141.5 605.999" stroke="black" stroke-width="3" stroke-linecap="round" stroke-linejoin="round"/>
<path d="M492 351C492.768 354.703 493.938 358.122 497.808 359.121C495.238 369.207 494.227 379.678 485.686 386.856C484.665 386.337 483.336 385.663 481.755 384.86C480.631 390.602 477.905 392.982 472.083 388.87C469.939 392.155 467.991 396.061 463 396.058C461.774 396.057 461.46 397.366 460.879 398.434C459.949 400.146 458.808 402.075 456.46 402.513C454.331 402.052 453.296 399.983 451.597 398.68C450.422 399.56 449.377 400.192 448.515 401.015C444.392 404.951 445.198 410.711 450.558 411.681C452.968 412.118 454.852 414.067 457.519 413.612C458.558 413.436 459.63 414.188 460.19 415.939C460.91 418.189 462.605 421.039 464.58 421.791C469.152 423.531 468.554 428.18 470.831 431.13C472.146 432.834 469.067 434.045 468 435.5" stroke="black" stroke-width="3" stroke-linecap="round" stroke-linejoin="round"/>
<path d="M117.001 450.5C114.792 455.276 114.329 459.557 118.9 463.613C121.1 465.566 121.092 468.994 120.996 472C120.847 476.667 120.667 481.333 120.501 486" stroke="black" stroke-width="3" stroke-linecap="round" stroke-linejoin="round"/>
<path d="M259 145C260.483 145.838 259.916 147.267 259.995 148.5C260.117 150.405 259.978 151.766 262.341 153.252C265.552 155.27 268.667 158.437 266.141 163.57C264.824 166.247 268.45 167.771 269.634 170.252C267.83 173.425 266.932 176.812 270 180" stroke="black" stroke-width="3" stroke-linecap="round" stroke-linejoin="round"/>
<path d="M215.499 123.5C211.302 124.903 206.631 124.887 203.394 128.915C201.466 131.314 197.412 129.809 194.947 131.911C195.09 134.329 196.424 135.98 198.202 137.693C196.605 140.194 194.295 142.565 194.999 146" stroke="black" stroke-width="3" stroke-linecap="round" stroke-linejoin="round"/>
<path d="M589.5 382C587.054 383.892 582.646 381.988 581.443 386.485C580.206 391.113 575.813 395.437 580.062 400.448C581.502 402.146 580.812 403.816 580.97 405.503C581.149 407.404 580.562 409.542 583.056 410.555C584.05 409.727 583.91 407.525 586.304 408.069C587.239 410.356 587.876 413.214 591.332 414.084C593.309 412.228 595.5 410.573 594.094 406.963C593.467 405.352 594.366 403.211 596.033 402.587C599.864 401.151 599.37 398.793 597.553 395.719C600.267 395.093 602.633 394.546 605 394" stroke="black" stroke-width="3" stroke-linecap="round" stroke-linejoin="round"/>
<path d="M634.5 386C634.334 387.5 633.553 389.3 634.113 390.445C635.975 394.257 634.809 397.887 633.913 401.478C633.443 403.363 632.549 404.979 633.465 407.016C635.016 410.467 633.247 412.265 629.996 412.981C627.462 413.539 626.817 415.065 626.955 417.503C627.181 421.495 628.145 425.295 629.545 428.983C630.091 430.421 630.61 432.413 629.448 432.864C625.56 434.371 624.9 439.208 620.904 440.529C619.238 439.929 619.462 437.372 617.486 436.988C615.715 437.527 615.256 438.812 615.5 440.5" stroke="black" stroke-width="3" stroke-linecap="round" stroke-linejoin="round"/>
<path d="M680.5 305C680 307.833 680.375 311.341 678.818 313.36C675.559 317.586 676.57 321.707 677.604 325.975C677.812 326.831 678.233 327.861 677.938 328.47C674.673 335.218 674.114 343.953 665 346.5" stroke="black" stroke-width="3" stroke-linecap="round" stroke-linejoin="round"/>
<path d="M215.501 779C213.425 780.476 213.279 781.828 214.923 784.057C218.529 788.945 222.441 793.497 226.763 797.756C230.299 793.456 229.249 788.613 229.585 784.006C229.613 783.626 230.122 783.401 229.508 782.989C224.398 779.564 228.849 776.579 230.047 773.518C230.61 772.079 231.76 770.881 232.483 769.491C234.632 765.359 234.096 764.334 228.928 763.396C229.411 760.486 230.878 757.352 229.863 754.55C228.829 751.693 229.283 748.168 226.557 746.044C225.529 745.723 225.15 746.634 224.483 746.965C220.303 749.04 219.086 748.294 219.038 743.5C219.018 741.487 218.966 739.647 216.969 738.544C220.241 734.01 219.663 731.989 214.001 728C213.758 726.314 215.7 725.876 216.119 724.836C214.695 721.224 211.769 724.426 210.073 723.059C209.569 721.18 210.76 719.685 211.261 718.415C209.315 715.354 205.114 719.048 204.088 715.475C203.246 712.544 206.97 712.769 208.001 711" stroke="black" stroke-width="3" stroke-linecap="round" stroke-linejoin="round"/>
<path d="M428.5 507.5C426.277 512.421 421.419 514.94 417.299 517.12C414.068 518.829 411.132 520.791 408.592 523.101C403.872 527.39 398.366 527.189 394.461 522.029C393.556 520.832 392.167 520 391 519" stroke="black" stroke-width="3" stroke-linecap="round" stroke-linejoin="round"/>
<path d="M232 348.5C231.607 351.196 234.275 352.362 235.832 354.541C230.754 357.351 225.147 354.753 221.039 358.184C222.05 363 221.56 363.839 217.5 364" stroke="black" stroke-width="3" stroke-linecap="round" stroke-linejoin="round"/>
<path d="M233.5 652C230.555 649.611 226.736 650.722 223.5 649.5C223.5 651.846 223.5 654.191 223.5 656.934C226.748 654.875 229.379 653.521 232.53 655.961C236.85 659.307 240.142 658.582 243 654C244.63 651.386 245.738 651.485 248.05 653.441C250.849 655.81 251.727 659.359 253.898 662.025C255.477 661.811 255.684 660.351 256.628 659.366C261.651 661.009 255.945 668.489 262.136 669.148C260.275 673.984 259.917 679.323 254.5 681.5" stroke="black" stroke-width="3" stroke-linecap="round" stroke-linejoin="round"/>
<path d="M153.5 607C153.402 609.462 153.877 611.771 154.974 614.013C156.507 617.143 154.602 626.02 152 628.5" stroke="black" stroke-width="3" stroke-linecap="round" stroke-linejoin="round"/>
<path d="M227.001 250C224.218 249.919 224.175 252.363 223.566 254.024C222.847 255.986 221.312 257.112 219.295 258.443C221.831 260.487 225.323 260.073 226.145 263.485C227.897 262.083 229.199 261.042 230.501 260" stroke="black" stroke-width="3" stroke-linecap="round" stroke-linejoin="round"/>
<path d="M549 311C549 311.667 548.911 312.348 549.013 312.998C550.516 322.496 550.624 322.739 541.943 326.364C539.016 327.586 538.969 330.442 537 332C532.922 330.103 528.85 328.198 526 324.5" stroke="black" stroke-width="2" stroke-linecap="round" stroke-linejoin="round"/>
<path d="M508.5 316C513.137 316.808 515.295 321.514 519.501 322.997C520.495 323.348 521.536 324.025 522.493 323.928C524.687 323.706 525.691 322.606 524 320.5" stroke="black" stroke-width="3" stroke-linecap="round" stroke-linejoin="round"/>
<path d="M541.5 327.5C544.94 331.081 544.79 335.604 544.338 339.983C544.223 341.095 544.373 342 544.5 343" stroke="black" stroke-width="3" stroke-linecap="round" stroke-linejoin="round"/>
<path d="M473 313.5C474.356 316.987 478.534 317.212 480.528 319.98C480.642 320.138 481.246 320.129 481.488 319.981C485.497 317.53 490.756 320.554 494.818 316.772C496.727 319.241 499.05 321.172 502.5 319.5" stroke="black" stroke-width="3" stroke-linecap="round" stroke-linejoin="round"/>
<path d="M116.5 433.5C116.298 435.291 114.409 435.332 113.42 435.847C111.416 436.891 111.599 438.786 111.656 439.993C111.767 442.358 114.093 441.195 115.505 441.592C115.62 443.619 114.236 445.192 113.37 447.323C115.753 447.225 116.92 450.059 119.5 449.5" stroke="black" stroke-width="3" stroke-linecap="round" stroke-linejoin="round"/>
<path d="M434 504.501C435.364 502.353 436.728 500.206 438.086 498.068C436.812 496.671 435.125 496.269 434.072 497.559C431.799 500.342 427.608 501.905 428 506.501" stroke="black" stroke-width="3" stroke-linecap="round" stroke-linejoin="round"/>
<path d="M198.5 146.999C192.868 144.947 188.202 148.884 183 149.499" stroke="black" stroke-width="3" stroke-linecap="round" stroke-linejoin="round"/>
<path d="M119 507C115.539 509 122.382 510.696 119.156 513.201C118.283 513.878 118.641 517.043 119.485 519.007C120.02 520.253 121.027 520.017 122 520" stroke="black" stroke-width="3" stroke-linecap="round" stroke-linejoin="round"/>
<path d="M150.501 442C144.219 443.089 144.712 448.796 143.121 453.173C144.789 455.138 147.532 453.141 149.501 454.5" stroke="black" stroke-width="3" stroke-linecap="round" stroke-linejoin="round"/>
<path d="M107.501 431C107.193 433.897 108.38 434.562 111.015 433.537C112.415 432.992 113.719 430.634 115.501 433" stroke="black" stroke-width="2" stroke-linecap="round" stroke-linejoin="round"/>
<path d="M166 503C166 517 148 529 148 529C148 529 130 517 130 503C130 498.226 131.896 493.648 135.272 490.272C138.648 486.896 143.226 485 148 485C152.774 485 157.352 486.896 160.728 490.272C164.104 493.648 166 498.226 166 503Z" fill="#FF0000"/>
<path d="M148 509C151.314 509 154 506.314 154 503C154 499.686 151.314 497 148 497C144.686 497 142 499.686 142 503C142 506.314 144.686 509 148 509Z" fill="#FF0000"/>
<path d="M166 503C166 517 148 529 148 529C148 529 130 517 130 503C130 498.226 131.896 493.648 135.272 490.272C138.648 486.896 143.226 485 148 485C152.774 485 157.352 486.896 160.728 490.272C164.104 493.648 166 498.226 166 503Z" stroke="#1E1E1E" stroke-width="4" stroke-linecap="round" stroke-linejoin="round"/>
<path d="M148 509C151.314 509 154 506.314 154 503C154 499.686 151.314 497 148 497C144.686 497 142 499.686 142 503C142 506.314 144.686 509 148 509Z" stroke="#1E1E1E" stroke-width="4" stroke-linecap="round" stroke-linejoin="round"/>
<path d="M344 276C344 290 326 302 326 302C326 302 308 290 308 276C308 271.226 309.896 266.648 313.272 263.272C316.648 259.896 321.226 258 326 258C330.774 258 335.352 259.896 338.728 263.272C342.104 266.648 344 271.226 344 276Z" fill="#FF0000"/>
<path d="M326 282C329.314 282 332 279.314 332 276C332 272.686 329.314 270 326 270C322.686 270 320 272.686 320 276C320 279.314 322.686 282 326 282Z" fill="#FF0000"/>
<path d="M344 276C344 290 326 302 326 302C326 302 308 290 308 276C308 271.226 309.896 266.648 313.272 263.272C316.648 259.896 321.226 258 326 258C330.774 258 335.352 259.896 338.728 263.272C342.104 266.648 344 271.226 344 276Z" stroke="#1E1E1E" stroke-width="4" stroke-linecap="round" stroke-linejoin="round"/>
<path d="M326 282C329.314 282 332 279.314 332 276C332 272.686 329.314 270 326 270C322.686 270 320 272.686 320 276C320 279.314 322.686 282 326 282Z" stroke="#1E1E1E" stroke-width="4" stroke-linecap="round" stroke-linejoin="round"/>
<path d="M227 219C227 233 209 245 209 245C209 245 191 233 191 219C191 214.226 192.896 209.648 196.272 206.272C199.648 202.896 204.226 201 209 201C213.774 201 218.352 202.896 221.728 206.272C225.104 209.648 227 214.226 227 219Z" fill="#FF0000"/>
<path d="M209 225C212.314 225 215 222.314 215 219C215 215.686 212.314 213 209 213C205.686 213 203 215.686 203 219C203 222.314 205.686 225 209 225Z" fill="#FF0000"/>
<path d="M227 219C227 233 209 245 209 245C209 245 191 233 191 219C191 214.226 192.896 209.648 196.272 206.272C199.648 202.896 204.226 201 209 201C213.774 201 218.352 202.896 221.728 206.272C225.104 209.648 227 214.226 227 219Z" stroke="#1E1E1E" stroke-width="4" stroke-linecap="round" stroke-linejoin="round"/>
<path d="M209 225C212.314 225 215 222.314 215 219C215 215.686 212.314 213 209 213C205.686 213 203 215.686 203 219C203 222.314 205.686 225 209 225Z" stroke="#1E1E1E" stroke-width="4" stroke-linecap="round" stroke-linejoin="round"/>
<path d="M245 232C245 246 227 258 227 258C227 258 209 246 209 232C209 227.226 210.896 222.648 214.272 219.272C217.648 215.896 222.226 214 227 214C231.774 214 236.352 215.896 239.728 219.272C243.104 222.648 245 227.226 245 232Z" fill="#FF0000"/>
<path d="M227 238C230.314 238 233 235.314 233 232C233 228.686 230.314 226 227 226C223.686 226 221 228.686 221 232C221 235.314 223.686 238 227 238Z" fill="#FF0000"/>
<path d="M245 232C245 246 227 258 227 258C227 258 209 246 209 232C209 227.226 210.896 222.648 214.272 219.272C217.648 215.896 222.226 214 227 214C231.774 214 236.352 215.896 239.728 219.272C243.104 222.648 245 227.226 245 232Z" stroke="#1E1E1E" stroke-width="4" stroke-linecap="round" stroke-linejoin="round"/>
<path d="M227 238C230.314 238 233 235.314 233 232C233 228.686 230.314 226 227 226C223.686 226 221 228.686 221 232C221 235.314 223.686 238 227 238Z" stroke="#1E1E1E" stroke-width="4" stroke-linecap="round" stroke-linejoin="round"/>
</svg>
